<?xml version="1.0" encoding="UTF-8"?><svg id="Layer_1" xmlns="http://www.w3.org/2000/svg" width="516.64" height="124.16" viewBox="0 0 516.64 124.16"><defs><style>.cls-1{fill:#fff;}</style></defs><path class="cls-1" d="m87.86,57.9c39.14-12.98,17.63-16.19,41.35-28.86,19.04-10.17,44.38,4.81,64.12-3.94,9.6-4.26,17.33-11.93,26.77-16.54,32.54-15.89,71.18,8.79,106.97,3.32,18.86-2.88,36.74-14.15,55.63-11.46,24.21,3.44,40.25,28.38,63.88,34.63,15.31,4.05,31.82-.31,47.27,3.2,15.45,3.51,29.53,22.39,19.32,34.5-4.06,4.81-10.76,6.83-14.64,11.78-4.41,5.61-4.14,13.49-6.56,20.2-7.25,20.11-35.32,23.2-55.34,15.7-20.02-7.5-37.68-21.85-58.85-24.8-31.38-4.38-61.75,17.39-93.28,14.21-34.29-3.46-66.3-35.78-98.37-23.16-13.99,5.51-24.45,18.98-39.25,21.6-12.29,2.17-24.38-3.7-36.63-6.09-34.99-6.82-71.12,14.98-105.9,7.17-8.61-11.55-4.03-36.58,10.36-37.13,26.62-1.02,4.95,0,25.16-1.97,19.67-1.93,23.88-21.9,48-12.35Z"/></svg>