<?xml version="1.0" encoding="UTF-8"?><svg id="Layer_1" xmlns="http://www.w3.org/2000/svg" width="871.66" height="207.13" viewBox="0 0 871.66 207.13"><defs><style>.cls-1{fill:#fff;}</style></defs><path class="cls-1" d="m64.86,147.3c11.76-.2,23.1-4.47,32.24-11.88,13.86-11.24,31.01-18.45,48.79-20.07,20.63-1.89,44.43,2.4,59.57-11.75,11.36-10.62,13.26-28.05,22.56-40.51,12.84-17.19,36.69-21.42,58.15-21.64,21.45-.22,43.96,2.01,63.41-7.04,18.8-8.75,32.54-27.2,52.54-32.69,26.3-7.22,52.59,10.27,79.64,13.81,30.42,3.98,62.39-9.81,91.39.2,38.05,13.14,57.28,62.79,97.12,68.55,19.71,2.85,41.14-6.09,59.08,2.56,10.35,4.99,17.3,14.94,26.27,22.12,19.57,15.65,46.81,16.86,71.81,15.11,16.35-1.15,37.45-.49,43.11,14.9,5.47,14.84-10.14,29.73-25.63,32.91-15.49,3.18-31.83-.26-47.21,3.41-27,6.44-48.05,33.89-75.72,31.7-30.74-2.43-46.17-38.82-73.19-53.68-31.46-17.3-70.18-2.06-102.65,13.27-32.47,15.33-71.12,30.65-102.66,13.49-12.52-6.82-22.27-18.17-35.23-24.11-23.08-10.58-50.19-1.66-73.03,9.43-22.84,11.1-46.2,24.72-71.55,23.36-23.43-1.25-48.29-15.06-68.87-3.79-6.36,3.49-11.39,9.07-17.81,12.45-17.13,9.03-37.63.22-56.55-3.87-31.53-6.81-64.26.24-96.51-.63-8.73-.24-19.02-2.09-22.71-10.01-5.62-12.09,9.23-23.44,21.92-27.55,15.02-4.87,30.63-7.89,41.71-8.08Z"/></svg>