<?xml version="1.0" encoding="UTF-8"?><svg id="Layer_1" xmlns="http://www.w3.org/2000/svg" width="1061.11" height="199.51" viewBox="0 0 1061.11 199.51"><defs><style>.cls-1{fill:#fff;}</style></defs><path class="cls-1" d="m289.85,63.7c53.43-16.15,111.15-6.82,166.33-15.25,49-7.48,94.77-28.76,142.9-40.63,48.13-11.87,103-12.97,143.01,16.29,18.3,13.39,32.1,32.16,50.3,45.69,52.9,39.31,126.21,25.44,192,29.44,22.58,1.37,46.56,5.81,62.82,21.54,16.26,15.73,19.9,45.92,2.03,59.8-13.41,10.42-32.67,8.02-48.82,2.77-24.54-7.98-47.16-21.27-71.92-28.55-100.38-29.48-203.35,44.9-307.84,39.76-75.39-3.71-146.57-48.8-221.55-40.19-47.42,5.45-90.04,31.97-136.97,40.67-64.84,12.02-132.5-10.83-197.19,1.99-29.69,5.88-83.83,4.49-58.31-41.27,13.09-23.46,38.17-35.24,63.53-37.19,33.55-2.59,65.98.46,99.47-6.79,42.76-9.25,78.65-35.52,120.2-48.09Z"/></svg>