<?xml version="1.0" encoding="UTF-8"?><svg id="Layer_1" xmlns="http://www.w3.org/2000/svg" width="1920" height="1080" viewBox="0 0 1920 1080"><defs><style>.cls-1{fill:#fff;}</style></defs><path class="cls-1" d="m698.64,584.81c-20.92,4.29-42.99-.35-63.76,4.61-36.46,8.7-64.89,45.76-102.26,42.81-41.52-3.27-62.35-52.42-98.85-72.48-42.48-23.37-94.78-2.79-138.62,17.91-43.85,20.7-96.06,41.4-138.64,18.22-16.91-9.21-30.07-24.54-47.58-32.56-31.17-14.29-67.78-2.25-98.63,12.74-30.84,14.98-62.38,33.38-96.63,31.55-4.52-.24-9.09-.83-13.67-1.62v-191.18c13.96-4.48,29.42-6.01,44.06-6.16,28.97-.3,59.36,2.72,85.63-9.5,25.39-11.82,43.95-36.74,70.95-44.15,35.53-9.74,71.03,13.87,107.56,18.65,41.07,5.38,84.26-13.24,123.42.28,51.38,17.74,77.36,84.8,131.15,92.57,26.63,3.85,55.57-8.22,79.8,3.46,13.98,6.75,23.36,20.18,35.48,29.88,26.42,21.14,63.22,22.77,96.98,20.4,22.08-1.55,50.57-.65,58.22,20.12,7.39,20.04-13.69,40.16-34.61,44.45Z"/><path class="cls-1" d="m1920,177.15v148.53c-45.69-1.59-90.2,27.77-136.27,23.13-53.74-5.42-103.9-56.07-154.15-36.3-21.93,8.63-38.31,29.75-61.52,33.85-19.26,3.4-38.21-5.8-57.41-9.54-54.84-10.69-111.45,23.48-165.96,11.23-13.5-18.1-6.33-57.33,16.23-58.19,41.72-1.6,7.76.01,39.43-3.09,30.82-3.03,37.41-34.32,75.21-19.36,61.35-20.33,27.64-25.37,64.8-45.23,29.84-15.94,69.56,7.53,100.48-6.18,15.05-6.67,27.17-18.69,41.96-25.91,50.99-24.91,111.54,13.77,167.64,5.2,23.63-3.61,46.29-15.62,69.56-18.14Z"/><path class="cls-1" d="m1920,833.77v245.59c-3.88.08-7.75.26-11.59.64H514.82c3.47-8.72,9.25-16,17.62-19.83,32.73-14.99,38.92-15.93,67.34-22.8,46.83-28.74,20.84-20.27,50.29-44.99,31.76-26.65,82.23-4.02,123.58-7.02,78.8-5.74,150.68-56.59,229.65-53.82,34.53,1.21,70.88,12.47,102.43-1.61,14.17-6.33,25.7-17.21,38.21-26.39,26.3-19.31,57.81-31.44,90.26-34.77,45.54-4.67,93.11,7.49,136.5-7.09,47.42-15.93,78.77-59.81,117.62-91.33,58.1-47.14,137.48-66.93,210.91-52.59,19.95,3.9,40.22,10.19,60.19,6.45,19.6-3.67,36.4-16.63,55.87-20.88,32.69-7.14,68.99,15.26,77.26,47.68,4.27,16.75,1.82,34.74,6.82,51.28,3.81,12.6,11.16,22.78,20.63,31.48Z"/></svg>